<?xml version="1.0" encoding="UTF-8"?>
<svg data-bbox="0.006 0.086 560.674 86.644" viewBox="0 0 560.666 86.75" height="86.75" width="560.666" xmlns="http://www.w3.org/2000/svg" data-type="color">
    <g>
        <path d="M21.311.086v20.21c1.757-2.043 3.718-3.567 5.88-4.571 2.162-1.004 4.509-1.506 7.04-1.506 2.917 0 5.449.458 7.594 1.371 2.144.915 3.779 2.198 4.904 3.85 1.125 1.653 1.801 3.27 2.03 4.852.228 1.582.343 4.957.343 10.125v31.535c0 5.134-.343 8.957-1.028 11.47-.686 2.514-2.294 4.693-4.825 6.539s-5.537 2.769-9.018 2.769c-2.497 0-4.825-.546-6.987-1.638s-4.14-2.73-5.933-4.915l-1.371 5.287H.006V.086h21.305zm6.486 35.279c0-3.621-.229-5.985-.686-7.093-.458-1.107-1.354-1.661-2.689-1.661-1.301 0-2.145.484-2.531 1.45-.387.967-.58 3.401-.58 7.304v30.164c0 3.763.219 6.17.659 7.225.439 1.055 1.309 1.582 2.61 1.582 1.335 0 2.206-.545 2.61-1.635.404-1.089.606-3.709.606-7.857V35.365z" fill="#336699" data-color="1"/>
        <path d="M104.895 15.484v69.979H83.221l.369-5.814c-1.477 2.36-3.296 4.13-5.458 5.311-2.162 1.18-4.65 1.77-7.462 1.77-3.2 0-5.854-.562-7.963-1.688s-3.665-2.618-4.667-4.482c-1.002-1.863-1.626-3.805-1.872-5.827-.247-2.021-.369-6.038-.369-12.05V15.484h21.305v47.619c0 5.45.167 8.684.501 9.703.333 1.021 1.239 1.529 2.716 1.529 1.582 0 2.522-.527 2.821-1.582.298-1.055.448-4.447.448-10.178V15.484h21.305z" fill="#336699" data-color="1"/>
        <path d="M134.215 15.484l-.369 6.447c1.546-2.571 3.436-4.499 5.669-5.784 2.232-1.286 4.807-1.928 7.726-1.928 3.656 0 6.645.862 8.965 2.584 2.32 1.723 3.814 3.894 4.482 6.513.667 2.62 1.002 6.987 1.002 13.104v49.043h-21.305V37c0-4.816-.158-7.752-.475-8.807s-1.196-1.582-2.637-1.582c-1.512 0-2.461.606-2.848 1.819s-.58 4.456-.58 9.729v47.303H112.54V15.484h21.675z" fill="#336699" data-color="1"/>
        <path d="M214.898 15.484l-8.648 27.87 11.232 42.108h-20.487l-6.645-30.499-.026 30.499H169.02V.086h21.305l.026 35.84 6.645-20.442h17.902z" fill="#336699" data-color="1"/>
        <path d="M268.898 51.713h-27.58v15.135c0 3.164.228 5.203.686 6.117.457.915 1.335 1.371 2.637 1.371 1.617 0 2.698-.606 3.243-1.819.544-1.213.817-3.56.817-7.04v-9.229h20.197v5.168c0 4.324-.273 7.646-.817 9.967-.545 2.32-1.819 4.799-3.823 7.436s-4.544 4.614-7.62 5.933c-3.077 1.318-6.935 1.978-11.575 1.978-4.5 0-8.473-.651-11.918-1.951-3.446-1.3-6.126-3.085-8.042-5.353-1.917-2.268-3.243-4.764-3.981-7.488s-1.107-6.688-1.107-11.892V39.637c0-6.117.826-10.942 2.479-14.476 1.652-3.533 4.359-6.24 8.121-8.121 3.761-1.88 8.085-2.821 12.973-2.821 5.976 0 10.907 1.134 14.792 3.401 3.884 2.268 6.609 5.273 8.174 9.018 1.564 3.744 2.347 9.009 2.347 15.794v9.281zm-21.357-11.391v-5.115c0-3.621-.194-5.959-.58-7.014-.387-1.055-1.178-1.582-2.373-1.582-1.477 0-2.391.448-2.742 1.345-.352.896-.527 3.314-.527 7.251v5.115h6.222z" fill="#336699" data-color="1"/>
        <path d="M297.164 15.484l-.844 9.202c3.093-6.59 7.575-10.08 13.447-10.468v24.627c-3.902 0-6.769.527-8.596 1.582-1.828 1.055-2.953 2.523-3.375 4.403-.422 1.881-.633 6.215-.633 12.999v27.633h-21.305V15.484h21.306z" fill="#336699" data-color="1"/>
        <path d="M385.338 15.484l-8.504 69.979h-23.123c-1.26-8.55-2.731-19.816-4.417-33.803a276.373 276.373 0 0 1-2.394 18.616l-2.34 15.187h-23.176l-9.031-69.979h18.362c.141 1.828 1.693 15.187 4.656 40.078.234-2.561 1.829-15.921 4.786-40.078h17.639l4.312 40.078c.683-11.703 2.312-25.062 4.886-40.078h18.344z" fill="#3399CC" data-color="2"/>
        <path d="M436.965 40.059v17.139c0 6.294-.316 10.908-.949 13.843-.633 2.936-1.986 5.678-4.061 8.227-2.075 2.55-4.738 4.43-7.989 5.643-3.252 1.213-6.987 1.819-11.206 1.819-4.712 0-8.701-.52-11.971-1.556s-5.81-2.602-7.62-4.693c-1.812-2.091-3.104-4.622-3.876-7.594-.773-2.971-1.16-7.427-1.16-13.368v-17.93c0-6.503.703-11.583 2.109-15.24 1.405-3.656 3.937-6.592 7.594-8.807 3.656-2.215 8.332-3.322 14.027-3.322 4.78 0 8.886.712 12.313 2.136s6.072 3.279 7.937 5.563c1.863 2.286 3.138 4.641 3.823 7.066s1.029 6.117 1.029 11.074zm-21.305-5.274c0-3.586-.193-5.844-.58-6.776-.388-.931-1.213-1.397-2.479-1.397s-2.109.466-2.531 1.397c-.422.932-.633 3.19-.633 6.776v31.588c0 3.305.211 5.458.633 6.46s1.247 1.503 2.479 1.503c1.266 0 2.101-.456 2.505-1.371.403-.914.606-2.882.606-5.906V34.785z" fill="#3399CC" data-color="2"/>
        <path d="M465.283 15.484l-.844 9.202c3.093-6.59 7.575-10.08 13.447-10.468v24.627c-3.902 0-6.769.527-8.596 1.582-1.828 1.055-2.953 2.523-3.375 4.403-.422 1.881-.633 6.215-.633 12.999v27.633h-21.305V15.484h21.306z" fill="#3399CC" data-color="2"/>
        <path d="M504.57.086v85.377h-21.938V.086h21.938z" fill="#3399CC" data-color="2"/>
        <path d="M560.68.086v85.377h-21.305v-5.076c-2.039 2.115-4.185 3.7-6.434 4.757a16.442 16.442 0 0 1-7.066 1.585c-3.305 0-6.17-.87-8.596-2.61s-3.981-3.752-4.667-6.038c-.686-2.285-1.028-6.012-1.028-11.18V34.152c0-5.379.343-9.193 1.028-11.443.686-2.25 2.259-4.227 4.72-5.933 2.46-1.705 5.396-2.558 8.807-2.558 2.637 0 5.054.476 7.251 1.427 2.196.952 4.192 2.379 5.985 4.281V.086h21.305zm-21.305 33.012c0-2.566-.22-4.289-.659-5.168-.44-.878-1.311-1.318-2.61-1.318-1.266 0-2.118.396-2.558 1.187-.44.791-.659 2.558-.659 5.3v34.277c0 2.848.211 4.72.633 5.616s1.23 1.345 2.426 1.345c1.371 0 2.285-.501 2.742-1.503.456-1.002.686-3.454.686-7.356v-32.38z" fill="#3399CC" data-color="2"/>
    </g>
</svg>
